<svg width="16" height="20" viewBox="0 0 16 20" fill="none" xmlns="http://www.w3.org/2000/svg">
<path d="M14.2639 2.60801C12.0561 0.400195 8.46076 0.400195 6.25529 2.60801L0.138108 8.72051C0.098264 8.76035 0.0771701 8.81426 0.0771701 8.87051C0.0771701 8.92676 0.098264 8.98066 0.138108 9.02051L1.00295 9.88535C1.04248 9.92471 1.096 9.94681 1.15178 9.94681C1.20756 9.94681 1.26108 9.92471 1.30061 9.88535L7.4178 3.77285C8.17717 3.01348 9.18733 2.59629 10.2608 2.59629C11.3342 2.59629 12.3444 3.01348 13.1014 3.77285C13.8608 4.53223 14.278 5.54238 14.278 6.61348C14.278 7.68691 13.8608 8.69473 13.1014 9.4541L6.86701 15.6861L5.85686 16.6963C4.91233 17.6408 3.37717 17.6408 2.43264 16.6963C1.97561 16.2393 1.72483 15.6322 1.72483 14.9854C1.72483 14.3385 1.97561 13.7314 2.43264 13.2744L8.6178 7.0916C8.77483 6.93691 8.98108 6.85019 9.20139 6.85019H9.20373C9.42405 6.85019 9.62795 6.93691 9.78264 7.0916C9.93967 7.24863 10.024 7.45488 10.024 7.67519C10.024 7.89316 9.93733 8.09941 9.78264 8.2541L4.72717 13.3049C4.68733 13.3447 4.66623 13.3986 4.66623 13.4549C4.66623 13.5111 4.68733 13.565 4.72717 13.6049L5.59201 14.4697C5.63155 14.5091 5.68506 14.5312 5.74084 14.5312C5.79663 14.5312 5.85014 14.5091 5.88967 14.4697L10.9428 9.4166C11.4092 8.9502 11.6647 8.33145 11.6647 7.67285C11.6647 7.01426 11.4069 6.39316 10.9428 5.9291C9.97951 4.96582 8.41389 4.96816 7.45061 5.9291L6.85061 6.53145L1.2678 12.1119C0.888883 12.4886 0.588526 12.9368 0.384144 13.4304C0.179761 13.9241 0.0754195 14.4534 0.0771701 14.9877C0.0771701 16.0729 0.501389 17.0924 1.2678 17.8588C2.06233 18.651 3.10295 19.0471 4.14358 19.0471C5.1842 19.0471 6.22483 18.651 7.01701 17.8588L14.2639 10.6166C15.3303 9.54785 15.9209 8.1252 15.9209 6.61348C15.9233 5.09941 15.3326 3.67676 14.2639 2.60801Z" fill="#F33E47"/>
</svg>
