<svg width="40" height="40" viewBox="0 0 40 40" fill="none" xmlns="http://www.w3.org/2000/svg">
<path d="M33.8054 19.8457H26.8034C26.3874 19.8455 25.982 19.9773 25.6457 20.2222C25.3094 20.467 25.0594 20.8122 24.9318 21.2081C24.5974 22.2528 23.9393 23.1641 23.0527 23.8101C22.1662 24.456 21.0971 24.8032 20.0002 24.8013C18.9032 24.8033 17.8341 24.4562 16.9475 23.8102C16.0609 23.1642 15.4028 22.2529 15.0686 21.2081C14.9408 20.8121 14.6906 20.4669 14.3542 20.2221C14.0177 19.9773 13.6123 19.8455 13.1962 19.8457H6.19416C5.93576 19.8457 5.67988 19.8965 5.44113 19.9954C5.20239 20.0942 4.98546 20.2392 4.80274 20.4219C4.62002 20.6046 4.47509 20.8215 4.37623 21.0603C4.27737 21.299 4.22651 21.5549 4.22656 21.8133V33.0349C4.22688 33.5566 4.43431 34.0568 4.80326 34.4256C5.17221 34.7944 5.67249 35.0016 6.19416 35.0017H33.8054C34.0637 35.0018 34.3195 34.9509 34.5582 34.8521C34.7969 34.7533 35.0138 34.6084 35.1965 34.4258C35.3792 34.2432 35.5242 34.0263 35.6231 33.7877C35.722 33.549 35.7729 33.2932 35.773 33.0349V21.8133C35.773 20.7257 34.893 19.8457 33.8054 19.8457Z" fill="#F33E47"/>
<path d="M19.5869 20.8948C19.6857 21.0332 19.8473 21.116 20.0173 21.116H20.0185C20.1897 21.116 20.3489 21.0332 20.4489 20.8928L25.8905 13.2396C25.9465 13.1603 25.9796 13.0671 25.9864 12.9702C25.9932 12.8733 25.9733 12.7764 25.9289 12.69C25.8845 12.6036 25.817 12.531 25.7339 12.4805C25.6508 12.43 25.5554 12.4034 25.4581 12.4036H22.8985V5.52845C22.8985 5.23445 22.6613 4.99805 22.3693 4.99805H17.6309C17.3381 4.99805 17.1017 5.23445 17.1017 5.52845V12.4036H14.5401C14.443 12.4038 14.3479 12.4306 14.265 12.4813C14.1822 12.5319 14.1149 12.6043 14.0704 12.6906C14.026 12.7769 14.0061 12.8738 14.0131 12.9706C14.02 13.0675 14.0534 13.1605 14.1097 13.2396L19.5869 20.8948Z" fill="#F33E47"/>
</svg>
