<svg width="27" height="21" viewBox="0 0 27 21" fill="none" xmlns="http://www.w3.org/2000/svg">
<path d="M9.98824 10.5C9.98824 11.3993 10.3455 12.2617 10.9813 12.8975C11.6172 13.5334 12.4796 13.8906 13.3789 13.8906C14.2781 13.8906 15.1405 13.5334 15.7764 12.8975C16.4123 12.2617 16.7695 11.3993 16.7695 10.5C16.7695 9.60075 16.4123 8.73833 15.7764 8.10247C15.1405 7.4666 14.2781 7.10938 13.3789 7.10938C12.4796 7.10938 11.6172 7.4666 10.9813 8.10247C10.3455 8.73833 9.98824 9.60075 9.98824 10.5ZM26.5236 9.71895C23.6537 3.67334 19.3155 0.630859 13.5 0.630859C7.68141 0.630859 3.34625 3.67334 0.476328 9.72197C0.361215 9.96572 0.301514 10.2319 0.301514 10.5015C0.301514 10.7711 0.361215 11.0373 0.476328 11.2811C3.34625 17.3267 7.68443 20.3691 13.5 20.3691C19.3185 20.3691 23.6537 17.3267 26.5236 11.278C26.7567 10.7876 26.7567 10.2185 26.5236 9.71895ZM13.3789 15.8281C10.4363 15.8281 8.05074 13.4426 8.05074 10.5C8.05074 7.55742 10.4363 5.17188 13.3789 5.17188C16.3214 5.17188 18.707 7.55742 18.707 10.5C18.707 13.4426 16.3214 15.8281 13.3789 15.8281Z" fill="white"/>
</svg>
