<svg width="26" height="24" viewBox="0 0 26 24" fill="none" xmlns="http://www.w3.org/2000/svg">
<path d="M11.75 4.4043H18V6.9043H11.75V4.4043ZM8 8.1543V0.654297H21.75V8.1543C22.7446 8.1543 23.6984 8.54938 24.4017 9.25265C25.1049 9.95591 25.5 10.9097 25.5 11.9043V19.4043H21.75V23.1543H8V19.4043H6.75V8.1543H8ZM10.5 3.1543V8.1543H19.25V3.1543H10.5ZM10.5 15.6543V20.6543H19.25V15.6543H10.5ZM21.75 10.6543C21.4185 10.6543 21.1005 10.786 20.8661 11.0204C20.6317 11.2548 20.5 11.5728 20.5 11.9043C20.5 12.2358 20.6317 12.5538 20.8661 12.7882C21.1005 13.0226 21.4185 13.1543 21.75 13.1543C22.0815 13.1543 22.3995 13.0226 22.6339 12.7882C22.8683 12.5538 23 12.2358 23 11.9043C23 11.5728 22.8683 11.2548 22.6339 11.0204C22.3995 10.786 22.0815 10.6543 21.75 10.6543ZM3 8.1543H4.25C4.58152 8.1543 4.89946 8.28599 5.13388 8.52041C5.3683 8.75483 5.5 9.07278 5.5 9.4043V18.1543C5.5 18.4858 5.3683 18.8038 5.13388 19.0382C4.89946 19.2726 4.58152 19.4043 4.25 19.4043H3C2.33696 19.4043 1.70107 19.1409 1.23223 18.6721C0.763392 18.2032 0.5 17.5673 0.5 16.9043V10.6543C0.5 9.99126 0.763392 9.35537 1.23223 8.88653C1.70107 8.41769 2.33696 8.1543 3 8.1543Z" fill="#F33E47"/>
</svg>
