<svg width="29" height="29" viewBox="0 0 29 29" fill="none" xmlns="http://www.w3.org/2000/svg">
<circle cx="14.5" cy="14.5" r="14.5" fill="#9B9B9B"/>
<path d="M14.4999 12.2872C13.2813 12.2872 12.2869 13.2816 12.2869 14.5002C12.2869 15.7187 13.2813 16.7131 14.4999 16.7131C15.7185 16.7131 16.7129 15.7187 16.7129 14.5002C16.7129 13.2816 15.7185 12.2872 14.4999 12.2872ZM21.1372 14.5002C21.1372 13.5837 21.1455 12.6756 21.094 11.7609C21.0426 10.6984 20.8002 9.75543 20.0232 8.97847C19.2446 8.19986 18.3033 7.95914 17.2408 7.90767C16.3244 7.85621 15.4163 7.86451 14.5016 7.86451C13.5851 7.86451 12.677 7.85621 11.7623 7.90767C10.6998 7.95914 9.75683 8.20152 8.97988 8.97847C8.20126 9.75709 7.96054 10.6984 7.90908 11.7609C7.85761 12.6773 7.86591 13.5854 7.86591 14.5002C7.86591 15.4149 7.85761 16.3247 7.90908 17.2394C7.96054 18.3019 8.20292 19.2449 8.97988 20.0218C9.75849 20.8004 10.6998 21.0412 11.7623 21.0926C12.6787 21.1441 13.5868 21.1358 14.5016 21.1358C15.418 21.1358 16.3261 21.1441 17.2408 21.0926C18.3033 21.0412 19.2463 20.7988 20.0232 20.0218C20.8018 19.2432 21.0426 18.3019 21.094 17.2394C21.1472 16.3247 21.1372 15.4166 21.1372 14.5002ZM14.4999 17.9051C12.6156 17.9051 11.0949 16.3844 11.0949 14.5002C11.0949 12.6159 12.6156 11.0952 14.4999 11.0952C16.3842 11.0952 17.9049 12.6159 17.9049 14.5002C17.9049 16.3844 16.3842 17.9051 14.4999 17.9051ZM18.0443 11.7509C17.6044 11.7509 17.2491 11.3957 17.2491 10.9557C17.2491 10.5158 17.6044 10.1605 18.0443 10.1605C18.4843 10.1605 18.8395 10.5158 18.8395 10.9557C18.8397 11.0602 18.8192 11.1636 18.7793 11.2602C18.7394 11.3567 18.6808 11.4444 18.6069 11.5183C18.5331 11.5922 18.4453 11.6508 18.3488 11.6907C18.2523 11.7306 18.1488 11.7511 18.0443 11.7509Z" fill="#F4F4F6"/>
</svg>
