<svg width="29" height="29" viewBox="0 0 29 29" fill="none" xmlns="http://www.w3.org/2000/svg">
<path d="M14.6005 10.0182C12.0773 10.0182 10.0182 12.0773 10.0182 14.6005C10.0182 17.1237 12.0773 19.1829 14.6005 19.1829C17.1237 19.1829 19.1828 17.1237 19.1828 14.6005C19.1828 12.0773 17.1237 10.0182 14.6005 10.0182ZM28.3441 14.6005C28.3441 12.703 28.3613 10.8226 28.2547 8.92847C28.1481 6.7284 27.6462 4.77584 26.0374 3.16703C24.4252 1.55479 22.4761 1.05634 20.276 0.949775C18.3784 0.843209 16.4981 0.860397 14.6039 0.860397C12.7064 0.860397 10.826 0.843209 8.93189 0.949775C6.73182 1.05634 4.77926 1.55823 3.17045 3.16703C1.55821 4.77927 1.05976 6.7284 0.953193 8.92847C0.846627 10.826 0.863815 12.7064 0.863815 14.6005C0.863815 16.4947 0.846627 18.3785 0.953193 20.2726C1.05976 22.4727 1.56165 24.4252 3.17045 26.034C4.78269 27.6463 6.73182 28.1447 8.93189 28.2513C10.8295 28.3579 12.7098 28.3407 14.6039 28.3407C16.5015 28.3407 18.3819 28.3579 20.276 28.2513C22.4761 28.1447 24.4286 27.6428 26.0374 26.034C27.6497 24.4218 28.1481 22.4727 28.2547 20.2726C28.3647 18.3785 28.3441 16.4981 28.3441 14.6005ZM14.6005 21.6511C10.6988 21.6511 7.54997 18.5022 7.54997 14.6005C7.54997 10.6988 10.6988 7.54999 14.6005 7.54999C18.5022 7.54999 21.6511 10.6988 21.6511 14.6005C21.6511 18.5022 18.5022 21.6511 14.6005 21.6511ZM21.9398 8.90785C21.0288 8.90785 20.2932 8.1722 20.2932 7.26123C20.2932 6.35026 21.0288 5.61461 21.9398 5.61461C22.8508 5.61461 23.5864 6.35026 23.5864 7.26123C23.5867 7.47754 23.5443 7.69178 23.4616 7.89168C23.379 8.09158 23.2577 8.27321 23.1048 8.42617C22.9518 8.57913 22.7702 8.7004 22.5703 8.78306C22.3704 8.86571 22.1561 8.90812 21.9398 8.90785Z" fill="white"/>
</svg>
