<svg width="56" height="56" viewBox="0 0 56 56" fill="none" xmlns="http://www.w3.org/2000/svg">
<g clip-path="url(#clip0)">
<path d="M3.49981 3.81003C-0.900853 8.38103 -0.000186116 13.2367 -0.000186116 27.988C-0.000186116 40.238 -2.13752 52.5184 9.04848 55.4094C12.5415 56.3077 43.4908 56.3077 46.9791 55.4047C51.6365 54.203 55.4258 50.4254 55.9438 43.8384C56.0161 42.919 56.0161 13.0734 55.9415 12.1354C55.3908 5.11903 51.0718 1.07537 45.3808 0.256368C44.0765 0.067368 43.8151 0.011368 37.1231 -0.000298649C13.3861 0.011368 8.18281 -1.04563 3.49981 3.81003Z" fill="url(#paint0_linear)"/>
<path d="M27.9951 7.32367C19.5227 7.32367 11.4774 6.57 8.4044 14.4567C7.13506 17.714 7.3194 21.9443 7.3194 28.0017C7.3194 33.317 7.14906 38.3127 8.4044 41.5443C11.4704 49.4357 19.5811 48.6797 27.9904 48.6797C36.1034 48.6797 44.4684 49.5243 47.5787 41.5443C48.8504 38.2543 48.6637 34.087 48.6637 28.0017C48.6637 19.9237 49.1094 14.7087 45.1917 10.7933C41.2251 6.82667 35.8607 7.32367 27.9857 7.32367H27.9951ZM26.1424 11.05C43.8151 11.022 46.0644 9.05734 44.8231 36.3503C44.3821 46.0033 37.0321 44.944 27.9974 44.944C11.5241 44.944 11.0504 44.4727 11.0504 27.9923C11.0504 11.3207 12.3571 11.0593 26.1424 11.0453V11.05ZM39.0317 14.4823C37.6621 14.4823 36.5514 15.593 36.5514 16.9627C36.5514 18.3323 37.6621 19.443 39.0317 19.443C40.4014 19.443 41.5121 18.3323 41.5121 16.9627C41.5121 15.593 40.4014 14.4823 39.0317 14.4823ZM27.9951 17.3827C22.1314 17.3827 17.3784 22.138 17.3784 28.0017C17.3784 33.8653 22.1314 38.6183 27.9951 38.6183C33.8587 38.6183 38.6094 33.8653 38.6094 28.0017C38.6094 22.138 33.8587 17.3827 27.9951 17.3827ZM27.9951 21.109C37.1067 21.109 37.1184 34.8943 27.9951 34.8943C18.8857 34.8943 18.8717 21.109 27.9951 21.109Z" fill="white"/>
</g>
<defs>
<linearGradient id="paint0_linear" x1="3.60719" y1="52.4229" x2="55.6533" y2="7.37764" gradientUnits="userSpaceOnUse">
<stop stop-color="#FFDD55"/>
<stop offset="0.5" stop-color="#FF543E"/>
<stop offset="1" stop-color="#C837AB"/>
</linearGradient>
<clipPath id="clip0">
<rect width="56" height="56" fill="white"/>
</clipPath>
</defs>
</svg>
