<svg width="23" height="20" viewBox="0 0 23 20" fill="none" xmlns="http://www.w3.org/2000/svg">
<path d="M4 0.606445C3.00544 0.606445 2.05161 1.00153 1.34835 1.70479C0.645088 2.40806 0.25 3.36188 0.25 4.35645V4.73332L11.5 10.7914L22.75 4.7352V4.35645C22.75 3.36188 22.3549 2.40806 21.6516 1.70479C20.9484 1.00153 19.9946 0.606445 19 0.606445H4Z" fill="#F33E47"/>
<path d="M22.75 6.86328L11.9444 12.6814C11.8078 12.7549 11.6551 12.7934 11.5 12.7934C11.3449 12.7934 11.1922 12.7549 11.0556 12.6814L0.25 6.86328V15.6064C0.25 16.601 0.645088 17.5548 1.34835 18.2581C2.05161 18.9613 3.00544 19.3564 4 19.3564H19C19.9946 19.3564 20.9484 18.9613 21.6516 18.2581C22.3549 17.5548 22.75 16.601 22.75 15.6064V6.86328Z" fill="#F33E47"/>
</svg>
