<svg width="29" height="29" viewBox="0 0 29 29" fill="none" xmlns="http://www.w3.org/2000/svg">
<circle cx="14.5" cy="14.5" r="14.5" fill="#9B9B9B"/>
<g clip-path="url(#clip0)">
<path d="M14.5005 7C16.7119 7 18.5109 8.85234 18.5109 11.1295C18.5109 13.4065 16.7119 15.258 14.5005 15.258C12.2892 15.258 10.4911 13.4065 10.4911 11.1295C10.4911 8.85234 12.2891 7 14.5005 7ZM14.5005 9.4195C13.5853 9.4195 12.841 10.187 12.841 11.1295C12.841 12.0716 13.5852 12.8385 14.5005 12.8385C15.4159 12.8385 16.161 12.0716 16.161 11.1295C16.161 10.187 15.4159 9.4195 14.5005 9.4195ZM17.8069 15.3985C18.2037 15.3921 18.5939 15.5936 18.8202 15.965C19.1661 16.5309 19.0004 17.2776 18.4522 17.6335C17.727 18.102 16.9401 18.4344 16.1241 18.626L18.3652 20.935C18.824 21.4077 18.8237 22.1733 18.3648 22.646C18.1348 22.8819 17.8348 23 17.534 23C17.2336 23 16.9326 22.8817 16.7033 22.6455L14.5015 20.377L12.2977 22.6455C11.8393 23.1181 11.0959 23.1181 10.6367 22.6455C10.1777 22.1731 10.1777 21.4067 10.6367 20.935L12.8789 18.6265C12.0626 18.4349 11.2754 18.1023 10.5508 17.6335C10.0015 17.2776 9.83551 16.5301 10.1813 15.965C10.5275 15.399 11.2523 15.2285 11.802 15.585C13.4438 16.6485 15.5592 16.6478 17.2005 15.585C17.3894 15.4625 17.5991 15.4018 17.8069 15.3985V15.3985Z" fill="#F4F4F6"/>
</g>
<defs>
<clipPath id="clip0">
<rect width="9" height="16" fill="white" transform="matrix(-1 0 0 1 19 7)"/>
</clipPath>
</defs>
</svg>
