<svg width="56" height="56" viewBox="0 0 56 56" fill="none" xmlns="http://www.w3.org/2000/svg">
<path d="M7.88026 0C3.51506 0 0 3.51506 0 7.88026V48.1198C0 52.485 3.51506 56.0001 7.88026 56.0001H48.1198C52.485 56.0001 56.0001 52.485 56.0001 48.1198V7.88026C56.0001 3.51506 52.485 0 48.1198 0H7.88026ZM29.2548 5.72253C35.6099 5.72253 40.7768 10.8916 40.7768 17.2463C40.7768 23.6005 35.6099 28.7665 29.2548 28.7665C22.8995 28.7665 17.7293 23.6005 17.7293 17.2463C17.7293 10.8916 22.8995 5.72253 29.2548 5.72253ZM29.1323 12.4741C26.5581 12.5396 24.4825 14.6572 24.4825 17.2463C24.4825 19.8755 26.624 22.0151 29.2548 22.0151C31.8851 22.0151 34.0235 19.8755 34.0235 17.2463C34.0235 14.6161 31.8851 12.4741 29.2548 12.4741C29.2137 12.4741 29.1732 12.473 29.1323 12.4741ZM19.7137 29.1586C20.3241 29.1607 20.94 29.3286 21.4953 29.6783C26.212 32.6442 32.2925 32.6461 37.0108 29.6783C38.5905 28.6835 40.6727 29.161 41.6675 30.7406C42.6612 32.3175 42.1839 34.4024 40.6053 35.3956C38.5471 36.6892 36.2852 37.6258 33.915 38.1658L40.3585 44.6094C41.6776 45.9257 41.6776 48.0651 40.3585 49.3834C39.0388 50.7022 36.9037 50.7022 35.5863 49.3834L29.2513 43.0518L22.9233 49.3834C22.2643 50.0426 21.3997 50.3721 20.5363 50.3721C19.672 50.3721 18.8102 50.0417 18.1493 49.3834C16.8304 48.0642 16.8308 45.9285 18.1493 44.6094L24.5893 38.1658C22.2441 37.6312 19.9812 36.703 17.8973 35.3956C16.3218 34.4024 15.848 32.3197 16.842 30.7406C17.4615 29.7534 18.508 29.1958 19.5913 29.1603C19.6321 29.159 19.6729 29.1584 19.7138 29.1586H19.7137Z" fill="#F96600"/>
</svg>
