<svg width="27" height="27" viewBox="0 0 27 27" fill="none" xmlns="http://www.w3.org/2000/svg">
<path d="M16.2949 7.94531C16.2949 8.71875 16.0225 9.37793 15.4775 9.92285C14.9326 10.4678 14.2734 10.7402 13.5 10.7402C12.7266 10.7402 12.0674 10.4678 11.5225 9.92285C10.9775 9.37793 10.7051 8.71875 10.7051 7.94531C10.7051 7.17188 10.9775 6.5127 11.5225 5.96777C12.0674 5.42285 12.7266 5.15039 13.5 5.15039C14.2734 5.15039 14.9326 5.42285 15.4775 5.96777C16.0225 6.5127 16.2949 7.17188 16.2949 7.94531ZM20.0566 14.3262C19.9395 14.0918 19.7754 13.9043 19.5645 13.7637C19.3535 13.623 19.0752 13.5674 18.7295 13.5967C18.3838 13.626 18.0293 13.7871 17.666 14.0801C17.5488 14.1738 17.3789 14.291 17.1562 14.4316C16.9336 14.5723 16.459 14.7598 15.7324 14.9941C15.0059 15.2285 14.2617 15.3457 13.5 15.3457C12.7383 15.3457 12.0117 15.2402 11.3203 15.0293C10.6289 14.8184 10.125 14.6074 9.80859 14.3965L9.33398 14.0801C8.9707 13.7871 8.61621 13.626 8.27051 13.5967C7.9248 13.5674 7.64648 13.623 7.43555 13.7637C7.22461 13.9043 7.06055 14.0918 6.94336 14.3262C6.68555 14.8535 6.67383 15.29 6.9082 15.6357C7.14258 15.9814 7.65234 16.4121 8.4375 16.9277C9.41016 17.5488 10.7344 17.9414 12.4102 18.1055L11.5137 19.0195C9.84961 20.6836 8.73047 21.7969 8.15625 22.3594C7.89844 22.6172 7.76953 22.9248 7.76953 23.2822C7.76953 23.6396 7.89844 23.9473 8.15625 24.2051L8.31445 24.3633C8.57227 24.6211 8.87988 24.75 9.2373 24.75C9.59473 24.75 9.90234 24.6211 10.1602 24.3633L13.5176 21.0059C14.8535 22.3535 15.9727 23.4727 16.875 24.3633C17.1328 24.6211 17.4404 24.75 17.7979 24.75C18.1553 24.75 18.4629 24.6211 18.7207 24.3633L18.8789 24.2051C19.1367 23.9473 19.2656 23.6396 19.2656 23.2822C19.2656 22.9248 19.1367 22.6172 18.8789 22.3594L15.5215 19.0195L14.6074 18.1055C16.2598 17.9414 17.5781 17.5488 18.5625 16.9277C19.3477 16.4121 19.8574 15.9814 20.0918 15.6357C20.3262 15.29 20.3145 14.8535 20.0566 14.3262ZM19.1953 7.94531C19.1953 6.375 18.6387 5.0332 17.5254 3.91992C16.4121 2.80664 15.0703 2.25 13.5 2.25C11.9297 2.25 10.5879 2.80664 9.47461 3.91992C8.36133 5.0332 7.80469 6.375 7.80469 7.94531C7.80469 9.51562 8.36133 10.8574 9.47461 11.9707C10.5879 13.084 11.9297 13.6406 13.5 13.6406C15.0703 13.6406 16.4121 13.084 17.5254 11.9707C18.6387 10.8574 19.1953 9.51562 19.1953 7.94531ZM27 5.0625V21.9375C27 23.332 26.5049 24.5244 25.5146 25.5146C24.5244 26.5049 23.332 27 21.9375 27H5.0625C3.66797 27 2.47559 26.5049 1.48535 25.5146C0.495117 24.5244 0 23.332 0 21.9375V5.0625C0 3.66797 0.495117 2.47559 1.48535 1.48535C2.47559 0.495117 3.66797 0 5.0625 0H21.9375C23.332 0 24.5244 0.495117 25.5146 1.48535C26.5049 2.47559 27 3.66797 27 5.0625Z" fill="white"/>
</svg>
