<svg width="22" height="22" viewBox="0 0 22 22" fill="none" xmlns="http://www.w3.org/2000/svg">
<path d="M1.66365 4.29707L4.34972 1.59551C4.5392 1.40392 4.76441 1.25191 5.01242 1.1482C5.26043 1.0445 5.52635 0.991146 5.79491 0.991211C6.34221 0.991211 6.85672 1.20703 7.24261 1.59551L10.133 4.50527C10.3233 4.69602 10.4743 4.92275 10.5773 5.17242C10.6803 5.4221 10.7333 5.6898 10.7332 5.96016C10.7332 6.51113 10.5189 7.0291 10.133 7.41758L8.01943 9.54531C8.51416 10.6431 9.202 11.6418 10.0497 12.4932C10.8954 13.3487 11.8873 14.0436 12.9779 14.5447L15.0915 12.417C15.281 12.2254 15.5062 12.0734 15.7542 11.9697C16.0022 11.866 16.2681 11.8126 16.5367 11.8127C17.084 11.8127 17.5985 12.0285 17.9844 12.417L20.8773 15.3242C21.0678 15.5153 21.2189 15.7425 21.322 15.9926C21.425 16.2427 21.4779 16.5109 21.4775 16.7816C21.4775 17.3326 21.2632 17.8506 20.8773 18.2391L18.1962 20.9381C17.5808 21.5602 16.7309 21.9131 15.8582 21.9131C15.6741 21.9131 15.4976 21.8979 15.3235 21.8674C11.9237 21.3037 8.5516 19.4832 5.83022 16.7461C3.11135 14.0115 1.30551 10.6193 0.738026 7.18652C0.566521 6.13789 0.912054 5.05879 1.66365 4.29707Z" fill="#F33E47"/>
</svg>
