<svg width="29" height="29" viewBox="0 0 29 29" fill="none" xmlns="http://www.w3.org/2000/svg">
<circle cx="14.5" cy="14.5" r="14.5" fill="#9B9B9B"/>
<path fill-rule="evenodd" clip-rule="evenodd" d="M13.546 19.514H14.466C14.466 19.514 14.742 19.468 14.88 19.33C15.018 19.192 15.018 18.916 15.018 18.916C15.018 18.916 15.018 17.72 15.57 17.536C16.122 17.352 16.858 18.732 17.594 19.238C18.146 19.652 18.56 19.56 18.56 19.56L20.584 19.514C20.584 19.514 21.642 19.468 21.136 18.594C21.09 18.548 20.86 17.996 19.618 16.846C18.33 15.65 18.514 15.88 20.032 13.81C20.952 12.568 21.32 11.832 21.228 11.464C21.136 11.142 20.446 11.234 20.446 11.234H18.146C18.146 11.234 17.962 11.188 17.87 11.28C17.732 11.372 17.686 11.51 17.686 11.51C17.686 11.51 17.318 12.476 16.858 13.304C15.846 15.006 15.432 15.098 15.294 15.006C14.926 14.776 15.018 13.994 15.018 13.488C15.018 11.832 15.294 11.142 14.512 10.958C14.282 10.912 14.098 10.866 13.454 10.866C12.626 10.866 11.936 10.866 11.568 11.05C11.292 11.188 11.108 11.464 11.246 11.464C11.384 11.464 11.752 11.556 11.936 11.786C12.12 12.2 12.12 12.89 12.12 12.89C12.12 12.89 12.258 14.868 11.798 15.098C11.476 15.282 11.062 14.914 10.142 13.35C9.68199 12.568 9.31399 11.648 9.31399 11.648C9.31399 11.648 9.26799 11.464 9.12999 11.372C8.99199 11.28 8.76199 11.234 8.76199 11.234H6.59999C6.59999 11.234 6.27799 11.234 6.13999 11.372C6.04799 11.51 6.13999 11.74 6.13999 11.74C6.13999 11.74 7.84199 15.696 9.77399 17.72C11.568 19.652 13.546 19.514 13.546 19.514Z" fill="#F4F4F6"/>
</svg>
