<svg width="35" height="28" viewBox="0 0 35 28" fill="none" xmlns="http://www.w3.org/2000/svg">
<path d="M33.6389 1.82179C33.874 1.03114 33.6389 0.449219 32.5075 0.449219H28.764C27.8106 0.449219 27.3721 0.94891 27.1369 1.50553C27.1369 1.50553 25.2302 6.12925 22.5353 9.1274C21.6646 9.99396 21.2642 10.2723 20.7875 10.2723C20.5524 10.2723 20.1901 9.99396 20.1901 9.20331V1.82179C20.1901 0.873007 19.9231 0.449219 19.135 0.449219H13.2496C12.6521 0.449219 12.2962 0.891983 12.2962 1.30312C12.2962 2.2013 13.6436 2.41003 13.7835 4.94012V10.4304C13.7835 11.6322 13.5674 11.8536 13.0907 11.8536C11.8195 11.8536 8.73063 7.21087 6.90017 1.89769C6.53154 0.866683 6.16926 0.449219 5.20954 0.449219H1.46599C0.398225 0.449219 0.182129 0.94891 0.182129 1.50553C0.182129 2.49226 1.45328 7.3943 6.09935 13.8713C9.1946 18.2926 13.5547 20.6899 17.5207 20.6899C19.9041 20.6899 20.1964 20.1586 20.1964 19.2414C20.1964 15.0162 19.9803 14.6177 21.1752 14.6177C21.7282 14.6177 22.6815 14.896 24.9061 17.0276C27.4484 19.5577 27.8678 20.6899 29.2915 20.6899H33.0351C34.1028 20.6899 34.6431 20.1586 34.3317 19.1086C33.6198 16.9011 28.8085 12.3596 28.5924 12.056C28.0394 11.3476 28.1983 11.0313 28.5924 10.3988C28.5987 10.3924 33.1685 3.99133 33.6389 1.82179Z" fill="white"/>
</svg>
