<svg width="29" height="29" viewBox="0 0 29 29" fill="none" xmlns="http://www.w3.org/2000/svg">
<circle cx="14.5" cy="14.5" r="14.5" fill="#9B9B9B"/>
<path d="M17.935 15.9892C17.747 15.8941 16.8316 15.4473 16.6605 15.3836C16.4894 15.3227 16.3652 15.2908 16.2405 15.4787C16.1186 15.662 15.7595 16.0816 15.6498 16.2039C15.5402 16.3263 15.4323 16.3356 15.2472 16.2527C15.0592 16.1575 14.4587 15.962 13.7458 15.3227C13.1889 14.8272 12.8181 14.2169 12.708 14.0289C12.5983 13.8433 12.6958 13.7383 12.7886 13.6455C12.8739 13.5602 12.9766 13.4308 13.0717 13.3183C13.1622 13.2058 13.1912 13.1303 13.2573 13.0084C13.3183 12.8767 13.2869 12.7741 13.2405 12.6813C13.1941 12.5884 12.8205 11.6683 12.6644 11.3017C12.5153 10.938 12.3592 10.9844 12.2444 10.9844C12.137 10.9745 12.0123 10.9745 11.8881 10.9745C11.7639 10.9745 11.5609 11.0209 11.3898 11.1991C11.2188 11.387 10.7355 11.8361 10.7355 12.7445C10.7355 13.6553 11.4044 14.5366 11.4972 14.6683C11.5923 14.7902 12.813 16.6652 14.6856 17.4709C15.1323 17.6589 15.4792 17.7714 15.7502 17.8642C16.1969 18.0058 16.6047 17.9861 16.9267 17.9397C17.283 17.8811 18.0302 17.4878 18.1867 17.0486C18.3456 16.6066 18.3456 16.2405 18.2992 16.1575C18.2528 16.0722 18.1309 16.0258 17.943 15.9428L17.935 15.9892ZM14.5389 20.5938H14.5291C13.4205 20.5938 12.3245 20.2933 11.3673 19.7317L11.1428 19.5977L8.79906 20.208L9.42906 17.9275L9.27766 17.6931C8.65865 16.7089 8.33026 15.5699 8.33031 14.4072C8.33031 11.0041 11.1161 8.22812 14.5436 8.22812C16.2039 8.22812 17.7616 8.875 18.9334 10.0469C19.5115 10.6181 19.9701 11.2987 20.2824 12.049C20.5946 12.7993 20.7543 13.6043 20.7522 14.417C20.7475 17.8178 17.9641 20.5938 14.5412 20.5938H14.5389ZM19.8245 9.15578C18.3986 7.77859 16.5236 7 14.5291 7C10.4153 7 7.06563 10.3352 7.06328 14.4339C7.06328 15.7427 7.405 17.0195 8.05938 18.1497L7 22L10.96 20.9673C12.057 21.5588 13.2832 21.8699 14.5295 21.873H14.5319C18.648 21.873 21.9977 18.5378 22 14.4363C22 12.4516 21.2261 10.5836 19.8152 9.17969L19.8245 9.15578Z" fill="#F4F4F6"/>
</svg>
